STARTFONT 2.1
COMMENT $XConsortium: luIS08.bdf,v 1.7 94/04/02 15:59:44 gildea Exp $
COMMENT  (c) Copyright Bigelow & Holmes 1986, 1985. Lucida is a registered
COMMENT  trademark of Bigelow & Holmes. See LEGAL NOTICE file for terms 
COMMENT  of the license. 
FONT -RFX-Serene-Medium-I-Normal-Sans-8-80-75-75-P-45-windows-1251
SIZE 8 72 72
FONTBOUNDINGBOX 15 11 -4 -3
STARTPROPERTIES 24
FONTNAME_REGISTRY ""
FOUNDRY "RFX"
FAMILY_NAME "Serene"
WEIGHT_NAME "Medium"
SLANT "I"
SETWIDTH_NAME "Normal"
ADD_STYLE_NAME "Sans"
PIXEL_SIZE 8
POINT_SIZE 80
RESOLUTION_X 75
RESOLUTION_Y 75
SPACING "P"
AVERAGE_WIDTH 45
CHARSET_REGISTRY "windows"
CHARSET_ENCODING "1251"
FONT_ASCENT 7
FONT_DESCENT 2
DEFAULT_CHAR 32
COPYRIGHT "Copyright Bigelow & Holmes 1986, 1985."
FACE_NAME "Lucida Sans Italic"
COPYRIGHT2 "Cyrillic and Euro glyphs copyright 2000 Dmitry Yu. Bolkhovityanov, bolkhov@inp.nsk.su"
SOURCEDATE "Sat Jul 22 12:55:29 2000"
PKGVERSION "1.1"
ASSEMBLER "cvtbdf.pl (Linux)"
ENDPROPERTIES
CHARS 244
STARTCHAR space
ENCODING 32
SWIDTH 316 0
DWIDTH 3 0
BBX 0 0 0 0
BITMAP
ENDCHAR
STARTCHAR exclam
ENCODING 33
SWIDTH 193 0
DWIDTH 3 0
BBX 2 6 1 0
BITMAP
40
40
40
40
80
80
ENDCHAR
STARTCHAR quotedbl
ENCODING 34
SWIDTH 361 0
DWIDTH 3 0
BBX 2 2 1 4
BITMAP
C0
C0
ENDCHAR
STARTCHAR numbersign
ENCODING 35
SWIDTH 633 0
DWIDTH 5 0
BBX 5 6 1 0
BITMAP
28
F8
50
F8
A0
E0
ENDCHAR
STARTCHAR dollar
ENCODING 36
SWIDTH 633 0
DWIDTH 5 0
BBX 4 7 1 -1
BITMAP
70
60
40
60
60
E0
40
ENDCHAR
STARTCHAR percent
ENCODING 37
SWIDTH 741 0
DWIDTH 6 0
BBX 6 6 1 0
BITMAP
6C
70
50
38
68
98
ENDCHAR
STARTCHAR ampersand
ENCODING 38
SWIDTH 701 0
DWIDTH 6 0
BBX 5 6 1 0
BITMAP
30
30
30
E8
90
F0
ENDCHAR
STARTCHAR quotesingle
ENCODING 39
SWIDTH 217 0
DWIDTH 2 0
BBX 1 2 1 4
BITMAP
80
80
ENDCHAR
STARTCHAR parenleft
ENCODING 40
SWIDTH 325 0
DWIDTH 3 0
BBX 3 8 1 -2
BITMAP
20
40
80
80
80
80
80
80
ENDCHAR
STARTCHAR parenright
ENCODING 41
SWIDTH 325 0
DWIDTH 3 0
BBX 3 8 0 -2
BITMAP
40
20
20
20
20
40
80
80
ENDCHAR
STARTCHAR asterisk
ENCODING 42
SWIDTH 470 0
DWIDTH 4 0
BBX 3 3 1 3
BITMAP
40
E0
C0
ENDCHAR
STARTCHAR plus
ENCODING 43
SWIDTH 633 0
DWIDTH 5 0
BBX 5 5 0 0
BITMAP
20
20
F8
20
20
ENDCHAR
STARTCHAR comma
ENCODING 44
SWIDTH 316 0
DWIDTH 3 0
BBX 1 3 1 -2
BITMAP
80
80
80
ENDCHAR
STARTCHAR minus
ENCODING 45
SWIDTH 633 0
DWIDTH 5 0
BBX 5 1 0 2
BITMAP
F8
ENDCHAR
STARTCHAR period
ENCODING 46
SWIDTH 316 0
DWIDTH 3 0
BBX 1 1 1 0
BITMAP
80
ENDCHAR
STARTCHAR slash
ENCODING 47
SWIDTH 482 0
DWIDTH 4 0
BBX 5 8 0 -2
BITMAP
08
10
10
20
20
40
80
80
ENDCHAR
STARTCHAR zero
ENCODING 48
SWIDTH 633 0
DWIDTH 5 0
BBX 4 6 1 0
BITMAP
70
50
90
90
90
60
ENDCHAR
STARTCHAR one
ENCODING 49
SWIDTH 633 0
DWIDTH 5 0
BBX 2 6 2 0
BITMAP
C0
40
40
80
80
80
ENDCHAR
STARTCHAR two
ENCODING 50
SWIDTH 633 0
DWIDTH 5 0
BBX 4 6 1 0
BITMAP
70
10
10
60
80
E0
ENDCHAR
STARTCHAR three
ENCODING 51
SWIDTH 633 0
DWIDTH 5 0
BBX 4 6 1 0
BITMAP
70
10
60
10
10
E0
ENDCHAR
STARTCHAR four
ENCODING 52
SWIDTH 633 0
DWIDTH 5 0
BBX 4 6 1 0
BITMAP
10
30
50
50
F0
20
ENDCHAR
STARTCHAR five
ENCODING 53
SWIDTH 633 0
DWIDTH 5 0
BBX 4 6 1 0
BITMAP
70
40
60
10
20
E0
ENDCHAR
STARTCHAR six
ENCODING 54
SWIDTH 633 0
DWIDTH 5 0
BBX 4 6 1 0
BITMAP
70
80
F0
90
90
60
ENDCHAR
STARTCHAR seven
ENCODING 55
SWIDTH 633 0
DWIDTH 5 0
BBX 4 6 1 0
BITMAP
70
30
20
40
80
80
ENDCHAR
STARTCHAR eight
ENCODING 56
SWIDTH 633 0
DWIDTH 5 0
BBX 4 6 1 0
BITMAP
70
50
60
E0
A0
E0
ENDCHAR
STARTCHAR nine
ENCODING 57
SWIDTH 633 0
DWIDTH 5 0
BBX 4 6 1 0
BITMAP
70
90
90
70
10
E0
ENDCHAR
STARTCHAR colon
ENCODING 58
SWIDTH 316 0
DWIDTH 3 0
BBX 2 4 1 0
BITMAP
40
00
00
80
ENDCHAR
STARTCHAR semicolon
ENCODING 59
SWIDTH 316 0
DWIDTH 3 0
BBX 2 6 1 -2
BITMAP
40
00
00
80
80
80
ENDCHAR
STARTCHAR less
ENCODING 60
SWIDTH 633 0
DWIDTH 5 0
BBX 5 5 1 0
BITMAP
08
30
C0
60
10
ENDCHAR
STARTCHAR equal
ENCODING 61
SWIDTH 633 0
DWIDTH 5 0
BBX 5 2 0 1
BITMAP
F8
F8
ENDCHAR
STARTCHAR greater
ENCODING 62
SWIDTH 633 0
DWIDTH 5 0
BBX 5 5 0 0
BITMAP
40
30
18
70
80
ENDCHAR
STARTCHAR question
ENCODING 63
SWIDTH 464 0
DWIDTH 4 0
BBX 3 6 1 0
BITMAP
E0
20
20
40
80
80
ENDCHAR
STARTCHAR at
ENCODING 64
SWIDTH 858 0
DWIDTH 7 0
BBX 6 6 1 0
BITMAP
38
5C
CC
DC
AC
70
ENDCHAR
STARTCHAR A
ENCODING 65
SWIDTH 687 0
DWIDTH 5 0
BBX 5 6 0 0
BITMAP
10
30
30
48
78
88
ENDCHAR
STARTCHAR B
ENCODING 66
SWIDTH 593 0
DWIDTH 5 0
BBX 4 6 1 0
BITMAP
70
50
60
90
90
E0
ENDCHAR
STARTCHAR C
ENCODING 67
SWIDTH 679 0
DWIDTH 5 0
BBX 5 6 1 0
BITMAP
38
40
80
80
80
70
ENDCHAR
STARTCHAR D
ENCODING 68
SWIDTH 743 0
DWIDTH 6 0
BBX 6 6 1 0
BITMAP
7C
44
44
44
88
F0
ENDCHAR
STARTCHAR E
ENCODING 69
SWIDTH 547 0
DWIDTH 4 0
BBX 4 6 1 0
BITMAP
70
40
60
80
80
E0
ENDCHAR
STARTCHAR F
ENCODING 70
SWIDTH 536 0
DWIDTH 4 0
BBX 4 6 1 0
BITMAP
70
40
40
E0
80
80
ENDCHAR
STARTCHAR G
ENCODING 71
SWIDTH 702 0
DWIDTH 6 0
BBX 5 6 1 0
BITMAP
38
40
80
90
90
70
ENDCHAR
STARTCHAR H
ENCODING 72
SWIDTH 735 0
DWIDTH 6 0
BBX 6 6 1 0
BITMAP
44
44
78
48
88
88
ENDCHAR
STARTCHAR I
ENCODING 73
SWIDTH 289 0
DWIDTH 2 0
BBX 2 6 1 0
BITMAP
40
40
40
80
80
80
ENDCHAR
STARTCHAR J
ENCODING 74
SWIDTH 408 0
DWIDTH 3 0
BBX 4 8 0 -2
BITMAP
10
10
10
10
20
20
20
C0
ENDCHAR
STARTCHAR K
ENCODING 75
SWIDTH 635 0
DWIDTH 5 0
BBX 5 6 1 0
BITMAP
48
50
60
A0
A0
90
ENDCHAR
STARTCHAR L
ENCODING 76
SWIDTH 545 0
DWIDTH 4 0
BBX 4 6 1 0
BITMAP
40
40
40
40
80
F0
ENDCHAR
STARTCHAR M
ENCODING 77
SWIDTH 828 0
DWIDTH 7 0
BBX 6 6 1 0
BITMAP
44
AC
B4
B8
A8
88
ENDCHAR
STARTCHAR N
ENCODING 78
SWIDTH 741 0
DWIDTH 6 0
BBX 6 6 1 0
BITMAP
44
64
A4
94
98
88
ENDCHAR
STARTCHAR O
ENCODING 79
SWIDTH 777 0
DWIDTH 6 0
BBX 6 6 1 0
BITMAP
38
4C
84
88
88
70
ENDCHAR
STARTCHAR P
ENCODING 80
SWIDTH 575 0
DWIDTH 5 0
BBX 4 6 1 0
BITMAP
70
50
50
E0
80
80
ENDCHAR
STARTCHAR Q
ENCODING 81
SWIDTH 777 0
DWIDTH 6 0
BBX 6 8 1 -2
BITMAP
38
4C
84
88
88
70
18
0C
ENDCHAR
STARTCHAR R
ENCODING 82
SWIDTH 632 0
DWIDTH 5 0
BBX 4 6 1 0
BITMAP
70
50
50
E0
A0
90
ENDCHAR
STARTCHAR S
ENCODING 83
SWIDTH 553 0
DWIDTH 4 0
BBX 4 6 1 0
BITMAP
70
40
40
30
10
E0
ENDCHAR
STARTCHAR T
ENCODING 84
SWIDTH 623 0
DWIDTH 5 0
BBX 5 6 1 0
BITMAP
F8
20
20
40
40
40
ENDCHAR
STARTCHAR U
ENCODING 85
SWIDTH 693 0
DWIDTH 6 0
BBX 5 6 1 0
BITMAP
48
88
88
88
90
F0
ENDCHAR
STARTCHAR V
ENCODING 86
SWIDTH 687 0
DWIDTH 5 0
BBX 5 6 1 0
BITMAP
88
90
90
A0
60
40
ENDCHAR
STARTCHAR W
ENCODING 87
SWIDTH 886 0
DWIDTH 7 0
BBX 7 6 1 0
BITMAP
92
B4
B4
98
D8
90
ENDCHAR
STARTCHAR X
ENCODING 88
SWIDTH 620 0
DWIDTH 5 0
BBX 6 7 0 0
BITMAP
40
24
28
10
30
50
88
ENDCHAR
STARTCHAR Y
ENCODING 89
SWIDTH 608 0
DWIDTH 5 0
BBX 5 6 1 0
BITMAP
88
50
60
40
40
40
ENDCHAR
STARTCHAR Z
ENCODING 90
SWIDTH 578 0
DWIDTH 5 0
BBX 5 6 0 0
BITMAP
78
10
20
20
40
F0
ENDCHAR
STARTCHAR bracketleft
ENCODING 91
SWIDTH 325 0
DWIDTH 3 0
BBX 3 8 0 -2
BITMAP
60
40
40
40
40
80
80
C0
ENDCHAR
STARTCHAR backslash
ENCODING 92
SWIDTH 482 0
DWIDTH 4 0
BBX 2 8 1 -2
BITMAP
80
80
80
40
40
40
40
40
ENDCHAR
STARTCHAR bracketright
ENCODING 93
SWIDTH 325 0
DWIDTH 3 0
BBX 3 8 0 -2
BITMAP
60
20
20
40
40
40
40
C0
ENDCHAR
STARTCHAR asciicircum
ENCODING 94
SWIDTH 633 0
DWIDTH 5 0
BBX 5 5 0 1
BITMAP
10
30
70
48
88
ENDCHAR
STARTCHAR underscore
ENCODING 95
SWIDTH 500 0
DWIDTH 4 0
BBX 3 1 0 -1
BITMAP
E0
ENDCHAR
STARTCHAR grave
ENCODING 96
SWIDTH 572 0
DWIDTH 5 0
BBX 1 1 3 5
BITMAP
80
ENDCHAR
STARTCHAR a
ENCODING 97
SWIDTH 608 0
DWIDTH 5 0
BBX 4 4 1 0
BITMAP
70
90
A0
E0
ENDCHAR
STARTCHAR b
ENCODING 98
SWIDTH 608 0
DWIDTH 5 0
BBX 4 6 1 0
BITMAP
40
40
70
D0
90
E0
ENDCHAR
STARTCHAR c
ENCODING 99
SWIDTH 503 0
DWIDTH 4 0
BBX 4 4 1 0
BITMAP
70
80
80
E0
ENDCHAR
STARTCHAR d
ENCODING 100
SWIDTH 608 0
DWIDTH 5 0
BBX 5 6 1 0
BITMAP
08
08
70
90
B0
F0
ENDCHAR
STARTCHAR e
ENCODING 101
SWIDTH 529 0
DWIDTH 4 0
BBX 3 4 1 0
BITMAP
60
A0
E0
E0
ENDCHAR
STARTCHAR f
ENCODING 102
SWIDTH 383 0
DWIDTH 3 0
BBX 4 8 1 -2
BITMAP
30
40
E0
40
80
80
80
80
ENDCHAR
STARTCHAR g
ENCODING 103
SWIDTH 608 0
DWIDTH 5 0
BBX 5 6 0 -2
BITMAP
38
48
90
70
10
E0
ENDCHAR
STARTCHAR h
ENCODING 104
SWIDTH 620 0
DWIDTH 5 0
BBX 4 6 1 0
BITMAP
40
40
70
D0
D0
90
ENDCHAR
STARTCHAR i
ENCODING 105
SWIDTH 289 0
DWIDTH 2 0
BBX 2 6 1 0
BITMAP
40
00
40
80
80
80
ENDCHAR
STARTCHAR j
ENCODING 106
SWIDTH 325 0
DWIDTH 3 0
BBX 4 8 0 -2
BITMAP
10
00
10
20
20
20
20
C0
ENDCHAR
STARTCHAR k
ENCODING 107
SWIDTH 572 0
DWIDTH 5 0
BBX 4 6 1 0
BITMAP
40
40
50
A0
E0
B0
ENDCHAR
STARTCHAR l
ENCODING 108
SWIDTH 289 0
DWIDTH 2 0
BBX 2 6 1 0
BITMAP
40
40
80
80
80
80
ENDCHAR
STARTCHAR m
ENCODING 109
SWIDTH 934 0
DWIDTH 7 0
BBX 7 4 1 0
BITMAP
76
7A
D2
92
ENDCHAR
STARTCHAR n
ENCODING 110
SWIDTH 620 0
DWIDTH 5 0
BBX 4 4 1 0
BITMAP
70
50
D0
90
ENDCHAR
STARTCHAR o
ENCODING 111
SWIDTH 566 0
DWIDTH 5 0
BBX 4 4 1 0
BITMAP
70
90
90
E0
ENDCHAR
STARTCHAR p
ENCODING 112
SWIDTH 608 0
DWIDTH 5 0
BBX 5 6 0 -2
BITMAP
78
68
48
70
80
80
ENDCHAR
STARTCHAR q
ENCODING 113
SWIDTH 608 0
DWIDTH 5 0
BBX 4 6 1 -2
BITMAP
70
90
B0
E0
20
20
ENDCHAR
STARTCHAR r
ENCODING 114
SWIDTH 478 0
DWIDTH 4 0
BBX 4 4 1 0
BITMAP
70
40
80
80
ENDCHAR
STARTCHAR s
ENCODING 115
SWIDTH 489 0
DWIDTH 4 0
BBX 3 4 1 0
BITMAP
60
40
20
C0
ENDCHAR
STARTCHAR t
ENCODING 116
SWIDTH 383 0
DWIDTH 3 0
BBX 3 6 1 0
BITMAP
40
40
E0
80
80
C0
ENDCHAR
STARTCHAR u
ENCODING 117
SWIDTH 620 0
DWIDTH 5 0
BBX 4 4 1 0
BITMAP
D0
90
A0
E0
ENDCHAR
STARTCHAR v
ENCODING 118
SWIDTH 545 0
DWIDTH 4 0
BBX 4 4 1 0
BITMAP
90
A0
A0
C0
ENDCHAR
STARTCHAR w
ENCODING 119
SWIDTH 795 0
DWIDTH 6 0
BBX 6 4 1 0
BITMAP
A4
B8
D8
D0
ENDCHAR
STARTCHAR x
ENCODING 120
SWIDTH 541 0
DWIDTH 4 0
BBX 5 5 0 -1
BITMAP
48
30
20
50
80
ENDCHAR
STARTCHAR y
ENCODING 121
SWIDTH 548 0
DWIDTH 4 0
BBX 4 7 1 -3
BITMAP
90
A0
60
40
40
40
80
ENDCHAR
STARTCHAR z
ENCODING 122
SWIDTH 536 0
DWIDTH 4 0
BBX 4 4 1 0
BITMAP
70
20
40
F0
ENDCHAR
STARTCHAR braceleft
ENCODING 123
SWIDTH 325 0
DWIDTH 3 0
BBX 3 8 1 -2
BITMAP
60
40
40
40
80
80
80
80
ENDCHAR
STARTCHAR bar
ENCODING 124
SWIDTH 233 0
DWIDTH 2 0
BBX 2 8 0 -2
BITMAP
40
40
40
80
80
80
80
80
ENDCHAR
STARTCHAR braceright
ENCODING 125
SWIDTH 325 0
DWIDTH 3 0
BBX 3 8 0 -2
BITMAP
60
20
60
20
40
40
40
80
ENDCHAR
STARTCHAR asciitilde
ENCODING 126
SWIDTH 633 0
DWIDTH 5 0
BBX 5 2 0 1
BITMAP
68
B0
ENDCHAR
STARTCHAR afii10051
ENCODING 128
SWIDTH 875 0
DWIDTH 7 0
BBX 6 6 1 0
BITMAP
F8
20
38
24
44
58
ENDCHAR
STARTCHAR afii10052
ENCODING 129
SWIDTH 500 0
DWIDTH 4 0
BBX 4 7 1 0
BITMAP
20
70
40
40
80
80
80
ENDCHAR
STARTCHAR quotesinglbase
ENCODING 130
SWIDTH 217 0
DWIDTH 2 0
BBX 1 3 0 -2
BITMAP
80
80
80
ENDCHAR
STARTCHAR afii10100
ENCODING 131
SWIDTH 500 0
DWIDTH 4 0
BBX 3 5 1 0
BITMAP
60
40
20
C0
E0
ENDCHAR
STARTCHAR quotedblbase
ENCODING 132
SWIDTH 361 0
DWIDTH 3 0
BBX 3 3 0 -2
BITMAP
E0
C0
C0
ENDCHAR
STARTCHAR ellipsis
ENCODING 133
SWIDTH 1000 0
DWIDTH 8 0
BBX 6 1 1 0
BITMAP
94
ENDCHAR
STARTCHAR dagger
ENCODING 134
SWIDTH 633 0
DWIDTH 5 0
BBX 3 8 2 -2
BITMAP
40
40
E0
40
40
40
40
80
ENDCHAR
STARTCHAR daggerdbl
ENCODING 135
SWIDTH 633 0
DWIDTH 5 0
BBX 4 8 1 -2
BITMAP
20
20
F0
20
40
F0
40
40
ENDCHAR
STARTCHAR Euro
ENCODING 136
SWIDTH 750 0
DWIDTH 6 0
BBX 6 6 1 0
BITMAP
1C
20
F8
F0
40
38
ENDCHAR
STARTCHAR perthousand
ENCODING 137
SWIDTH 1027 0
DWIDTH 8 0
BBX 7 6 1 0
BITMAP
68
78
60
3A
6E
9E
ENDCHAR
STARTCHAR afii10058
ENCODING 138
SWIDTH 1125 0
DWIDTH 9 0
BBX 9 6 0 0
BITMAP
1E00
1200
1700
2480
4480
8700
ENDCHAR
STARTCHAR guilsinglleft
ENCODING 139
SWIDTH 328 0
DWIDTH 3 0
BBX 2 4 1 0
BITMAP
40
80
80
80
ENDCHAR
STARTCHAR afii10059
ENCODING 140
SWIDTH 1125 0
DWIDTH 9 0
BBX 8 6 1 0
BITMAP
44
44
7E
49
89
8E
ENDCHAR
STARTCHAR afii10061
ENCODING 141
SWIDTH 625 0
DWIDTH 5 0
BBX 5 7 1 0
BITMAP
30
48
50
60
A0
A0
90
ENDCHAR
STARTCHAR afii10060
ENCODING 142
SWIDTH 875 0
DWIDTH 7 0
BBX 6 6 1 0
BITMAP
F8
20
38
24
44
44
ENDCHAR
STARTCHAR afii10145
ENCODING 143
SWIDTH 750 0
DWIDTH 6 0
BBX 6 7 1 -1
BITMAP
44
44
48
88
88
F8
20
ENDCHAR
STARTCHAR afii10099
ENCODING 144
SWIDTH 625 0
DWIDTH 5 0
BBX 4 8 1 -2
BITMAP
40
E0
70
D0
D0
A0
20
40
ENDCHAR
STARTCHAR quoteleft
ENCODING 145
SWIDTH 217 0
DWIDTH 2 0
BBX 1 2 1 4
BITMAP
80
80
ENDCHAR
STARTCHAR quoteright
ENCODING 146
SWIDTH 217 0
DWIDTH 2 0
BBX 1 2 1 4
BITMAP
80
80
ENDCHAR
STARTCHAR quotedblleft
ENCODING 147
SWIDTH 361 0
DWIDTH 3 0
BBX 3 2 1 4
BITMAP
E0
C0
ENDCHAR
STARTCHAR quotedblright
ENCODING 148
SWIDTH 361 0
DWIDTH 3 0
BBX 3 2 1 4
BITMAP
E0
C0
ENDCHAR
STARTCHAR bullet
ENCODING 149
SWIDTH 633 0
DWIDTH 5 0
BBX 3 2 1 2
BITMAP
E0
E0
ENDCHAR
STARTCHAR endash
ENCODING 150
SWIDTH 500 0
DWIDTH 4 0
BBX 3 1 1 2
BITMAP
E0
ENDCHAR
STARTCHAR emdash
ENCODING 151
SWIDTH 1000 0
DWIDTH 8 0
BBX 7 1 1 2
BITMAP
FE
ENDCHAR
STARTCHAR trademark
ENCODING 153
SWIDTH 801 0
DWIDTH 6 0
BBX 6 3 1 3
BITMAP
F4
74
EC
ENDCHAR
STARTCHAR afii10106
ENCODING 154
SWIDTH 750 0
DWIDTH 6 0
BBX 6 4 0 0
BITMAP
38
2C
54
98
ENDCHAR
STARTCHAR guilsinglright
ENCODING 155
SWIDTH 328 0
DWIDTH 3 0
BBX 2 4 1 0
BITMAP
80
40
40
80
ENDCHAR
STARTCHAR afii10107
ENCODING 156
SWIDTH 750 0
DWIDTH 6 0
BBX 5 4 1 0
BITMAP
50
78
A8
B0
ENDCHAR
STARTCHAR afii10109
ENCODING 157
SWIDTH 625 0
DWIDTH 5 0
BBX 4 5 1 0
BITMAP
30
50
60
E0
B0
ENDCHAR
STARTCHAR afii10108
ENCODING 158
SWIDTH 625 0
DWIDTH 5 0
BBX 4 6 1 0
BITMAP
40
E0
70
D0
D0
90
ENDCHAR
STARTCHAR afii10193
ENCODING 159
SWIDTH 625 0
DWIDTH 5 0
BBX 4 5 1 -1
BITMAP
D0
90
A0
E0
40
ENDCHAR
STARTCHAR space
ENCODING 160
SWIDTH 316 0
DWIDTH 3 0
BBX 0 0 0 0
BITMAP
ENDCHAR
STARTCHAR afii10062
ENCODING 161
SWIDTH 625 0
DWIDTH 5 0
BBX 5 7 1 0
BITMAP
30
88
90
50
20
40
80
ENDCHAR
STARTCHAR afii10110
ENCODING 162
SWIDTH 500 0
DWIDTH 4 0
BBX 4 9 1 -3
BITMAP
60
00
90
A0
60
40
40
40
80
ENDCHAR
STARTCHAR afii10057
ENCODING 163
SWIDTH 408 0
DWIDTH 3 0
BBX 4 8 0 -2
BITMAP
10
10
10
10
20
20
20
C0
ENDCHAR
STARTCHAR currency
ENCODING 164
SWIDTH 633 0
DWIDTH 5 0
BBX 6 6 0 0
BITMAP
44
78
50
50
70
88
ENDCHAR
STARTCHAR afii10050
ENCODING 165
SWIDTH 500 0
DWIDTH 4 0
BBX 4 7 1 0
BITMAP
10
70
40
40
80
80
80
ENDCHAR
STARTCHAR brokenbar
ENCODING 166
SWIDTH 233 0
DWIDTH 2 0
BBX 2 8 0 -2
BITMAP
40
40
40
00
00
80
80
80
ENDCHAR
STARTCHAR section
ENCODING 167
SWIDTH 633 0
DWIDTH 5 0
BBX 4 8 1 -2
BITMAP
30
40
60
50
50
20
10
E0
ENDCHAR
STARTCHAR afii10023
ENCODING 168
SWIDTH 500 0
DWIDTH 4 0
BBX 4 7 1 0
BITMAP
50
70
40
60
80
80
E0
ENDCHAR
STARTCHAR copyright
ENCODING 169
SWIDTH 858 0
DWIDTH 7 0
BBX 6 6 1 0
BITMAP
78
BC
A4
C4
B4
78
ENDCHAR
STARTCHAR afii10053
ENCODING 170
SWIDTH 625 0
DWIDTH 5 0
BBX 5 6 1 0
BITMAP
38
40
E0
80
80
70
ENDCHAR
STARTCHAR guillemotleft
ENCODING 171
SWIDTH 527 0
DWIDTH 4 0
BBX 4 4 1 0
BITMAP
50
E0
A0
60
ENDCHAR
STARTCHAR logicalnot
ENCODING 172
SWIDTH 633 0
DWIDTH 5 0
BBX 5 2 1 1
BITMAP
F8
08
ENDCHAR
STARTCHAR hyphen
ENCODING 173
SWIDTH 313 0
DWIDTH 3 0
BBX 2 1 1 2
BITMAP
C0
ENDCHAR
STARTCHAR registered
ENCODING 174
SWIDTH 633 0
DWIDTH 5 0
BBX 2 4 2 2
BITMAP
80
C0
C0
80
ENDCHAR
STARTCHAR afii10056
ENCODING 175
SWIDTH 250 0
DWIDTH 2 0
BBX 3 7 1 0
BITMAP
A0
40
40
40
80
80
80
ENDCHAR
STARTCHAR degree
ENCODING 176
SWIDTH 269 0
DWIDTH 2 0
BBX 1 2 1 4
BITMAP
80
80
ENDCHAR
STARTCHAR plusminus
ENCODING 177
SWIDTH 633 0
DWIDTH 5 0
BBX 5 5 0 0
BITMAP
10
F8
20
00
F8
ENDCHAR
STARTCHAR afii10055
ENCODING 178
SWIDTH 289 0
DWIDTH 2 0
BBX 2 6 1 0
BITMAP
40
40
40
80
80
80
ENDCHAR
STARTCHAR afii10103
ENCODING 179
SWIDTH 289 0
DWIDTH 2 0
BBX 2 6 1 0
BITMAP
40
00
40
80
80
80
ENDCHAR
STARTCHAR afii10098
ENCODING 180
SWIDTH 625 0
DWIDTH 5 0
BBX 4 5 1 0
BITMAP
10
70
40
80
80
ENDCHAR
STARTCHAR mu
ENCODING 181
SWIDTH 627 0
DWIDTH 5 0
BBX 5 6 0 -2
BITMAP
48
48
70
F0
80
80
ENDCHAR
STARTCHAR paragraph
ENCODING 182
SWIDTH 633 0
DWIDTH 5 0
BBX 4 8 1 -2
BITMAP
F0
F0
D0
20
60
60
60
60
ENDCHAR
STARTCHAR periodcentered
ENCODING 183
SWIDTH 316 0
DWIDTH 5 0
BBX 1 1 2 2
BITMAP
80
ENDCHAR
STARTCHAR afii10071
ENCODING 184
SWIDTH 500 0
DWIDTH 4 0
BBX 4 5 1 0
BITMAP
50
60
A0
E0
E0
ENDCHAR
STARTCHAR afii61352
ENCODING 185
SWIDTH 1000 0
DWIDTH 8 0
BBX 7 6 1 0
BITMAP
48
4A
AA
B0
94
90
ENDCHAR
STARTCHAR afii10101
ENCODING 186
SWIDTH 500 0
DWIDTH 4 0
BBX 4 4 1 0
BITMAP
70
E0
80
E0
ENDCHAR
STARTCHAR guillemotright
ENCODING 187
SWIDTH 527 0
DWIDTH 4 0
BBX 4 4 0 0
BITMAP
60
50
70
A0
ENDCHAR
STARTCHAR afii10105
ENCODING 188
SWIDTH 325 0
DWIDTH 3 0
BBX 4 8 0 -2
BITMAP
10
00
10
20
20
20
20
C0
ENDCHAR
STARTCHAR afii10054
ENCODING 189
SWIDTH 553 0
DWIDTH 4 0
BBX 4 6 1 0
BITMAP
70
40
40
30
10
E0
ENDCHAR
STARTCHAR afii10102
ENCODING 190
SWIDTH 489 0
DWIDTH 4 0
BBX 3 4 1 0
BITMAP
60
40
20
C0
ENDCHAR
STARTCHAR afii10104
ENCODING 191
SWIDTH 250 0
DWIDTH 2 0
BBX 3 6 1 0
BITMAP
A0
00
40
80
80
80
ENDCHAR
STARTCHAR afii10017
ENCODING 192
SWIDTH 625 0
DWIDTH 5 0
BBX 5 6 0 0
BITMAP
10
30
30
48
78
88
ENDCHAR
STARTCHAR afii10018
ENCODING 193
SWIDTH 625 0
DWIDTH 5 0
BBX 5 6 1 0
BITMAP
78
40
60
90
90
E0
ENDCHAR
STARTCHAR afii10019
ENCODING 194
SWIDTH 625 0
DWIDTH 5 0
BBX 4 6 1 0
BITMAP
70
50
60
90
90
E0
ENDCHAR
STARTCHAR afii10020
ENCODING 195
SWIDTH 500 0
DWIDTH 4 0
BBX 4 6 1 0
BITMAP
70
40
40
80
80
80
ENDCHAR
STARTCHAR afii10021
ENCODING 196
SWIDTH 750 0
DWIDTH 6 0
BBX 7 7 0 -1
BITMAP
1E
12
14
24
44
FE
82
ENDCHAR
STARTCHAR afii10022
ENCODING 197
SWIDTH 500 0
DWIDTH 4 0
BBX 4 6 1 0
BITMAP
70
40
60
80
80
E0
ENDCHAR
STARTCHAR afii10024
ENCODING 198
SWIDTH 875 0
DWIDTH 7 0
BBX 8 6 0 0
BITMAP
49
2A
3C
54
54
92
ENDCHAR
STARTCHAR afii10025
ENCODING 199
SWIDTH 625 0
DWIDTH 5 0
BBX 4 6 1 0
BITMAP
60
10
60
10
10
E0
ENDCHAR
STARTCHAR afii10026
ENCODING 200
SWIDTH 750 0
DWIDTH 6 0
BBX 6 6 1 0
BITMAP
44
4C
58
A8
C8
88
ENDCHAR
STARTCHAR afii10027
ENCODING 201
SWIDTH 750 0
DWIDTH 6 0
BBX 6 7 1 0
BITMAP
18
44
4C
58
A8
C8
88
ENDCHAR
STARTCHAR afii10028
ENCODING 202
SWIDTH 625 0
DWIDTH 5 0
BBX 5 6 1 0
BITMAP
48
50
60
A0
A0
90
ENDCHAR
STARTCHAR afii10029
ENCODING 203
SWIDTH 750 0
DWIDTH 6 0
BBX 7 6 0 0
BITMAP
1E
12
14
24
44
84
ENDCHAR
STARTCHAR afii10030
ENCODING 204
SWIDTH 875 0
DWIDTH 7 0
BBX 6 6 1 0
BITMAP
44
6C
B4
B8
A8
88
ENDCHAR
STARTCHAR afii10031
ENCODING 205
SWIDTH 750 0
DWIDTH 6 0
BBX 6 6 1 0
BITMAP
44
44
78
48
88
88
ENDCHAR
STARTCHAR afii10032
ENCODING 206
SWIDTH 750 0
DWIDTH 6 0
BBX 6 6 1 0
BITMAP
38
4C
84
88
88
70
ENDCHAR
STARTCHAR afii10033
ENCODING 207
SWIDTH 750 0
DWIDTH 6 0
BBX 6 6 1 0
BITMAP
7C
44
48
88
88
88
ENDCHAR
STARTCHAR afii10034
ENCODING 208
SWIDTH 625 0
DWIDTH 5 0
BBX 4 6 1 0
BITMAP
70
50
50
E0
80
80
ENDCHAR
STARTCHAR afii10035
ENCODING 209
SWIDTH 625 0
DWIDTH 5 0
BBX 5 6 1 0
BITMAP
38
40
80
80
80
70
ENDCHAR
STARTCHAR afii10036
ENCODING 210
SWIDTH 625 0
DWIDTH 5 0
BBX 5 6 1 0
BITMAP
F8
20
20
40
40
40
ENDCHAR
STARTCHAR afii10037
ENCODING 211
SWIDTH 625 0
DWIDTH 5 0
BBX 5 6 1 0
BITMAP
88
90
50
20
40
80
ENDCHAR
STARTCHAR afii10038
ENCODING 212
SWIDTH 875 0
DWIDTH 7 0
BBX 6 6 1 0
BITMAP
10
78
94
A4
78
20
ENDCHAR
STARTCHAR afii10039
ENCODING 213
SWIDTH 625 0
DWIDTH 5 0
BBX 6 6 0 0
BITMAP
24
28
10
30
50
88
ENDCHAR
STARTCHAR afii10040
ENCODING 214
SWIDTH 750 0
DWIDTH 6 0
BBX 6 7 1 -1
BITMAP
44
44
48
88
88
FC
08
ENDCHAR
STARTCHAR afii10041
ENCODING 215
SWIDTH 750 0
DWIDTH 6 0
BBX 5 6 2 0
BITMAP
88
88
90
70
10
10
ENDCHAR
STARTCHAR afii10042
ENCODING 216
SWIDTH 875 0
DWIDTH 7 0
BBX 6 6 1 0
BITMAP
54
54
54
A8
A8
F8
ENDCHAR
STARTCHAR afii10043
ENCODING 217
SWIDTH 875 0
DWIDTH 7 0
BBX 6 7 1 -1
BITMAP
54
54
54
A8
A8
FC
08
ENDCHAR
STARTCHAR afii10044
ENCODING 218
SWIDTH 625 0
DWIDTH 5 0
BBX 4 6 1 0
BITMAP
C0
40
60
90
90
E0
ENDCHAR
STARTCHAR afii10045
ENCODING 219
SWIDTH 875 0
DWIDTH 7 0
BBX 7 6 1 0
BITMAP
42
42
64
94
94
E4
ENDCHAR
STARTCHAR afii10046
ENCODING 220
SWIDTH 625 0
DWIDTH 5 0
BBX 4 6 1 0
BITMAP
40
40
60
90
90
E0
ENDCHAR
STARTCHAR afii10047
ENCODING 221
SWIDTH 625 0
DWIDTH 5 0
BBX 5 6 0 0
BITMAP
70
08
38
10
10
E0
ENDCHAR
STARTCHAR afii10048
ENCODING 222
SWIDTH 1000 0
DWIDTH 8 0
BBX 8 6 1 0
BITMAP
4E
53
61
A2
A2
9C
ENDCHAR
STARTCHAR afii10049
ENCODING 223
SWIDTH 625 0
DWIDTH 5 0
BBX 5 6 0 0
BITMAP
38
48
48
30
50
90
ENDCHAR
STARTCHAR afii10065
ENCODING 224
SWIDTH 625 0
DWIDTH 5 0
BBX 4 4 1 0
BITMAP
70
90
A0
E0
ENDCHAR
STARTCHAR afii10066
ENCODING 225
SWIDTH 625 0
DWIDTH 5 0
BBX 5 6 1 0
BITMAP
18
20
70
90
90
E0
ENDCHAR
STARTCHAR afii10067
ENCODING 226
SWIDTH 625 0
DWIDTH 5 0
BBX 5 6 1 0
BITMAP
30
48
50
90
90
E0
ENDCHAR
STARTCHAR afii10068
ENCODING 227
SWIDTH 500 0
DWIDTH 4 0
BBX 3 4 1 0
BITMAP
40
20
C0
E0
ENDCHAR
STARTCHAR afii10069
ENCODING 228
SWIDTH 625 0
DWIDTH 5 0
BBX 4 6 1 0
BITMAP
20
10
70
90
90
E0
ENDCHAR
STARTCHAR afii10070
ENCODING 229
SWIDTH 500 0
DWIDTH 4 0
BBX 3 4 1 0
BITMAP
60
A0
E0
E0
ENDCHAR
STARTCHAR afii10072
ENCODING 230
SWIDTH 750 0
DWIDTH 6 0
BBX 6 4 0 0
BITMAP
54
38
78
AC
ENDCHAR
STARTCHAR afii10073
ENCODING 231
SWIDTH 625 0
DWIDTH 5 0
BBX 4 4 1 0
BITMAP
70
20
10
E0
ENDCHAR
STARTCHAR afii10074
ENCODING 232
SWIDTH 625 0
DWIDTH 5 0
BBX 4 4 1 0
BITMAP
D0
90
A0
E0
ENDCHAR
STARTCHAR afii10075
ENCODING 233
SWIDTH 625 0
DWIDTH 5 0
BBX 4 6 1 0
BITMAP
30
00
D0
90
A0
E0
ENDCHAR
STARTCHAR afii10076
ENCODING 234
SWIDTH 625 0
DWIDTH 5 0
BBX 4 4 1 0
BITMAP
50
60
E0
B0
ENDCHAR
STARTCHAR afii10077
ENCODING 235
SWIDTH 625 0
DWIDTH 5 0
BBX 5 4 0 0
BITMAP
38
28
50
90
ENDCHAR
STARTCHAR afii10078
ENCODING 236
SWIDTH 875 0
DWIDTH 7 0
BBX 6 4 1 0
BITMAP
44
7C
A8
88
ENDCHAR
STARTCHAR afii10079
ENCODING 237
SWIDTH 625 0
DWIDTH 5 0
BBX 4 4 1 0
BITMAP
50
70
A0
A0
ENDCHAR
STARTCHAR afii10080
ENCODING 238
SWIDTH 625 0
DWIDTH 5 0
BBX 4 4 1 0
BITMAP
70
90
90
E0
ENDCHAR
STARTCHAR afii10081
ENCODING 239
SWIDTH 625 0
DWIDTH 5 0
BBX 4 4 1 0
BITMAP
70
50
D0
90
ENDCHAR
STARTCHAR afii10082
ENCODING 240
SWIDTH 625 0
DWIDTH 5 0
BBX 5 6 0 -2
BITMAP
78
68
48
70
80
80
ENDCHAR
STARTCHAR afii10083
ENCODING 241
SWIDTH 500 0
DWIDTH 4 0
BBX 4 4 1 0
BITMAP
70
80
80
E0
ENDCHAR
STARTCHAR afii10084
ENCODING 242
SWIDTH 875 0
DWIDTH 7 0
BBX 7 4 1 0
BITMAP
76
7A
D2
92
ENDCHAR
STARTCHAR afii10085
ENCODING 243
SWIDTH 500 0
DWIDTH 4 0
BBX 4 7 1 -3
BITMAP
90
A0
60
40
40
40
80
ENDCHAR
STARTCHAR afii10086
ENCODING 244
SWIDTH 875 0
DWIDTH 7 0
BBX 6 8 1 -2
BITMAP
10
10
7C
94
A4
F8
20
20
ENDCHAR
STARTCHAR afii10087
ENCODING 245
SWIDTH 500 0
DWIDTH 4 0
BBX 4 4 1 0
BITMAP
90
60
40
A0
ENDCHAR
STARTCHAR afii10088
ENCODING 246
SWIDTH 625 0
DWIDTH 5 0
BBX 4 5 1 -1
BITMAP
D0
90
A0
F0
10
ENDCHAR
STARTCHAR afii10089
ENCODING 247
SWIDTH 625 0
DWIDTH 5 0
BBX 3 4 2 0
BITMAP
A0
A0
40
40
ENDCHAR
STARTCHAR afii10090
ENCODING 248
SWIDTH 875 0
DWIDTH 7 0
BBX 7 4 1 0
BITMAP
52
92
B4
DC
ENDCHAR
STARTCHAR afii10091
ENCODING 249
SWIDTH 875 0
DWIDTH 7 0
BBX 7 5 1 -1
BITMAP
52
92
B4
DE
02
ENDCHAR
STARTCHAR afii10092
ENCODING 250
SWIDTH 500 0
DWIDTH 4 0
BBX 3 4 1 0
BITMAP
C0
60
A0
C0
ENDCHAR
STARTCHAR afii10093
ENCODING 251
SWIDTH 875 0
DWIDTH 7 0
BBX 6 4 1 0
BITMAP
44
64
A8
C8
ENDCHAR
STARTCHAR afii10094
ENCODING 252
SWIDTH 500 0
DWIDTH 4 0
BBX 3 4 1 0
BITMAP
40
60
A0
C0
ENDCHAR
STARTCHAR afii10095
ENCODING 253
SWIDTH 625 0
DWIDTH 5 0
BBX 4 4 1 0
BITMAP
70
30
10
E0
ENDCHAR
STARTCHAR afii10096
ENCODING 254
SWIDTH 875 0
DWIDTH 7 0
BBX 6 4 1 0
BITMAP
5C
64
A4
B8
ENDCHAR
STARTCHAR afii10097
ENCODING 255
SWIDTH 500 0
DWIDTH 4 0
BBX 4 4 0 0
BITMAP
70
50
60
A0
ENDCHAR
STARTCHAR fl
ENCODING -1
SWIDTH 639 0
DWIDTH 5 0
BBX 5 8 1 -2
BITMAP
38
48
F0
50
90
90
80
80
ENDCHAR
STARTCHAR Zcaron
ENCODING -1
SWIDTH 578 0
DWIDTH 5 0
BBX 5 7 0 0
BITMAP
30
78
10
20
20
40
F0
ENDCHAR
STARTCHAR oe
ENCODING -1
SWIDTH 899 0
DWIDTH 7 0
BBX 6 4 1 0
BITMAP
6C
9C
94
FC
ENDCHAR
STARTCHAR Ydieresis
ENCODING -1
SWIDTH 608 0
DWIDTH 5 0
BBX 5 7 1 0
BITMAP
30
88
50
60
40
40
40
ENDCHAR
STARTCHAR dotlessi
ENCODING -1
SWIDTH 289 0
DWIDTH 2 0
BBX 2 4 1 0
BITMAP
40
40
80
80
ENDCHAR
STARTCHAR lslash
ENCODING -1
SWIDTH 289 0
DWIDTH 2 0
BBX 3 6 0 0
BITMAP
40
40
60
C0
40
C0
ENDCHAR
STARTCHAR Lslash
ENCODING -1
SWIDTH 545 0
DWIDTH 4 0
BBX 4 6 0 0
BITMAP
40
40
60
C0
40
F0
ENDCHAR
STARTCHAR fi
ENCODING -1
SWIDTH 639 0
DWIDTH 5 0
BBX 5 8 1 -2
BITMAP
38
40
F8
50
90
90
80
80
ENDCHAR
STARTCHAR OE
ENCODING -1
SWIDTH 1005 0
DWIDTH 8 0
BBX 8 6 1 0
BITMAP
3F
48
8E
88
88
7E
ENDCHAR
STARTCHAR caron
ENCODING -1
SWIDTH 568 0
DWIDTH 5 0
BBX 3 1 2 5
BITMAP
E0
ENDCHAR
STARTCHAR ogonek
ENCODING -1
SWIDTH 566 0
DWIDTH 5 0
BBX 1 1 2 -2
BITMAP
80
ENDCHAR
STARTCHAR hungarumlaut
ENCODING -1
SWIDTH 566 0
DWIDTH 5 0
BBX 3 1 2 5
BITMAP
E0
ENDCHAR
STARTCHAR dotaccent
ENCODING -1
SWIDTH 566 0
DWIDTH 5 0
BBX 1 1 3 5
BITMAP
80
ENDCHAR
STARTCHAR breve
ENCODING -1
SWIDTH 566 0
DWIDTH 5 0
BBX 3 1 2 5
BITMAP
E0
ENDCHAR
STARTCHAR tilde
ENCODING -1
SWIDTH 566 0
DWIDTH 5 0
BBX 3 1 2 5
BITMAP
E0
ENDCHAR
STARTCHAR circumflex
ENCODING -1
SWIDTH 566 0
DWIDTH 5 0
BBX 3 1 2 5
BITMAP
E0
ENDCHAR
STARTCHAR scaron
ENCODING -1
SWIDTH 489 0
DWIDTH 4 0
BBX 4 5 1 0
BITMAP
70
60
40
20
C0
ENDCHAR
STARTCHAR ring
ENCODING -1
SWIDTH 567 0
DWIDTH 5 0
BBX 3 3 4 4
BITMAP
40
A0
40
ENDCHAR
STARTCHAR florin
ENCODING -1
SWIDTH 633 0
DWIDTH 5 0
BBX 4 8 2 -2
BITMAP
30
40
40
E0
40
80
80
80
ENDCHAR
STARTCHAR fraction
ENCODING -1
SWIDTH 117 0
DWIDTH 1 0
BBX 6 6 -1 0
BITMAP
04
08
10
20
40
80
ENDCHAR
STARTCHAR Scaron
ENCODING -1
SWIDTH 553 0
DWIDTH 4 0
BBX 5 7 1 0
BITMAP
38
70
40
40
30
10
E0
ENDCHAR
STARTCHAR zcaron
ENCODING -1
SWIDTH 536 0
DWIDTH 4 0
BBX 5 5 1 0
BITMAP
38
70
20
40
F0
ENDCHAR
ENDFONT
